<svg width="16" height="17" viewBox="0 0 16 17" fill="none" xmlns="http://www.w3.org/2000/svg">
<g id="CaretDown">
<path id="Vector" d="M13.354 7.02371L8.35403 12.0237C8.30759 12.0702 8.25245 12.1071 8.19175 12.1322C8.13105 12.1574 8.06599 12.1703 8.00028 12.1703C7.93457 12.1703 7.86951 12.1574 7.80881 12.1322C7.74811 12.1071 7.69297 12.0702 7.64653 12.0237L2.64653 7.02371C2.55271 6.92989 2.5 6.80264 2.5 6.66996C2.5 6.53727 2.55271 6.41003 2.64653 6.31621C2.74035 6.22239 2.8676 6.16968 3.00028 6.16968C3.13296 6.16968 3.26021 6.22239 3.35403 6.31621L8.00028 10.9631L12.6465 6.31621C12.693 6.26975 12.7481 6.2329 12.8088 6.20776C12.8695 6.18262 12.9346 6.16968 13.0003 6.16968C13.066 6.16968 13.131 6.18262 13.1917 6.20776C13.2524 6.2329 13.3076 6.26975 13.354 6.31621C13.4005 6.36266 13.4373 6.41781 13.4625 6.47851C13.4876 6.5392 13.5006 6.60426 13.5006 6.66996C13.5006 6.73565 13.4876 6.80071 13.4625 6.8614C13.4373 6.9221 13.4005 6.97725 13.354 7.02371Z" fill="#19110F"/>
</g>
</svg>
