<svg width="31" height="32" viewBox="0 0 31 32" fill="none" xmlns="http://www.w3.org/2000/svg">
<path d="M27.1248 15.67C27.1248 15.9269 27.0227 16.1733 26.841 16.355C26.6594 16.5367 26.413 16.6387 26.156 16.6387H7.18186L14.2477 23.7033C14.3377 23.7933 14.4091 23.9002 14.4578 24.0178C14.5065 24.1354 14.5316 24.2614 14.5316 24.3887C14.5316 24.516 14.5065 24.6421 14.4578 24.7597C14.4091 24.8773 14.3377 24.9841 14.2477 25.0741C14.1577 25.1641 14.0508 25.2355 13.9332 25.2842C13.8156 25.3329 13.6896 25.358 13.5623 25.358C13.435 25.358 13.309 25.3329 13.1914 25.2842C13.0738 25.2355 12.9669 25.1641 12.8769 25.0741L4.15814 16.3554C4.06807 16.2654 3.99662 16.1586 3.94787 16.0409C3.89912 15.9233 3.87402 15.7973 3.87402 15.67C3.87402 15.5427 3.89912 15.4166 3.94787 15.299C3.99662 15.1814 4.06807 15.0746 4.15814 14.9846L12.8769 6.26583C13.0587 6.08405 13.3052 5.98193 13.5623 5.98193C13.8194 5.98193 14.0659 6.08405 14.2477 6.26583C14.4295 6.44761 14.5316 6.69415 14.5316 6.95122C14.5316 7.20829 14.4295 7.45484 14.2477 7.63661L7.18186 14.7012H26.156C26.413 14.7012 26.6594 14.8033 26.841 14.985C27.0227 15.1666 27.1248 15.413 27.1248 15.67Z" fill="#BA938C"/>
</svg>
