<svg width="16" height="17" viewBox="0 0 16 17" fill="none" xmlns="http://www.w3.org/2000/svg">
<g id="lucide:bed-single">
<path id="Vector" d="M2 14.0033V8.67C2 8.31638 2.14048 7.97724 2.39052 7.72719C2.64057 7.47715 2.97971 7.33667 3.33333 7.33667M3.33333 7.33667H12.6667M3.33333 7.33667V4.67C3.33333 4.31638 3.47381 3.97724 3.72386 3.72719C3.97391 3.47715 4.31304 3.33667 4.66667 3.33667H11.3333C11.687 3.33667 12.0261 3.47715 12.2761 3.72719C12.5262 3.97724 12.6667 4.31638 12.6667 4.67V7.33667M12.6667 7.33667C13.0203 7.33667 13.3594 7.47715 13.6095 7.72719C13.8595 7.97724 14 8.31638 14 8.67V14.0033M2 12.67H14" stroke="#939291" stroke-width="1.27985" stroke-linecap="round" stroke-linejoin="round"/>
</g>
</svg>
