<svg width="29" height="49" viewBox="0 0 29 49" fill="none" xmlns="http://www.w3.org/2000/svg">
<path d="M28.9319 47.1174L20.9776 25.9422C24.925 23.5332 28.0131 19.101 28.0217 14.1287C28.0387 6.65308 22.007 0.557709 14.597 0.540564C7.17863 0.523418 1.1299 6.60164 1.11288 14.0687C1.10437 19.041 4.17553 23.4904 8.11444 25.9165L0.0749842 47.0574C-0.1377 47.5889 0.117521 48.1976 0.644977 48.4119C0.76408 48.4634 0.900198 48.4891 1.04482 48.4891L27.9536 48.5405C28.5236 48.5405 29 48.0862 29 47.5118C29 47.3832 28.9745 47.246 28.9234 47.1174H28.9319ZM14.7417 23.0703C9.90098 23.0617 5.97909 19.0839 5.9876 14.2144V12.8856H8.62488V14.2144C8.61637 17.6265 11.3642 20.4041 14.7502 20.4127C18.1361 20.4212 20.8925 17.6522 20.901 14.2401V12.9113H23.5383V14.2401C23.5298 19.1182 19.5824 23.0703 14.7502 23.0617L14.7417 23.0703Z" fill="#FCFAF9"/>
</svg>
