<svg width="16" height="17" viewBox="0 0 16 17" fill="none" xmlns="http://www.w3.org/2000/svg">
<g id="Frame">
<path id="Vector" d="M15 13.67H14V6.66996C14 6.40475 13.8946 6.15039 13.7071 5.96285C13.5196 5.77532 13.2652 5.66996 13 5.66996H9V2.66996C9.00012 2.48888 8.95106 2.31116 8.85807 2.15577C8.76507 2.00039 8.63163 1.87318 8.47199 1.78771C8.31234 1.70224 8.13248 1.66172 7.95161 1.67048C7.77073 1.67925 7.59564 1.73696 7.445 1.83746L2.445 5.16996C2.30784 5.26147 2.19543 5.38548 2.11779 5.53095C2.04015 5.67642 1.99969 5.83882 2 6.00371V13.67H1C0.867392 13.67 0.740215 13.7226 0.646447 13.8164C0.552678 13.9102 0.5 14.0374 0.5 14.17C0.5 14.3026 0.552678 14.4297 0.646447 14.5235C0.740215 14.6173 0.867392 14.67 1 14.67H15C15.1326 14.67 15.2598 14.6173 15.3536 14.5235C15.4473 14.4297 15.5 14.3026 15.5 14.17C15.5 14.0374 15.4473 13.9102 15.3536 13.8164C15.2598 13.7226 15.1326 13.67 15 13.67ZM13 6.66996V13.67H9V6.66996H13ZM3 6.00371L8 2.66996V13.67H3V6.00371ZM7 7.66996V8.66996C7 8.80257 6.94732 8.92975 6.85355 9.02352C6.75979 9.11728 6.63261 9.16996 6.5 9.16996C6.36739 9.16996 6.24021 9.11728 6.14645 9.02352C6.05268 8.92975 6 8.80257 6 8.66996V7.66996C6 7.53735 6.05268 7.41018 6.14645 7.31641C6.24021 7.22264 6.36739 7.16996 6.5 7.16996C6.63261 7.16996 6.75979 7.22264 6.85355 7.31641C6.94732 7.41018 7 7.53735 7 7.66996ZM5 7.66996V8.66996C5 8.80257 4.94732 8.92975 4.85355 9.02352C4.75979 9.11728 4.63261 9.16996 4.5 9.16996C4.36739 9.16996 4.24021 9.11728 4.14645 9.02352C4.05268 8.92975 4 8.80257 4 8.66996V7.66996C4 7.53735 4.05268 7.41018 4.14645 7.31641C4.24021 7.22264 4.36739 7.16996 4.5 7.16996C4.63261 7.16996 4.75979 7.22264 4.85355 7.31641C4.94732 7.41018 5 7.53735 5 7.66996ZM5 11.17V12.17C5 12.3026 4.94732 12.4297 4.85355 12.5235C4.75979 12.6173 4.63261 12.67 4.5 12.67C4.36739 12.67 4.24021 12.6173 4.14645 12.5235C4.05268 12.4297 4 12.3026 4 12.17V11.17C4 11.0374 4.05268 10.9102 4.14645 10.8164C4.24021 10.7226 4.36739 10.67 4.5 10.67C4.63261 10.67 4.75979 10.7226 4.85355 10.8164C4.94732 10.9102 5 11.0374 5 11.17ZM7 11.17V12.17C7 12.3026 6.94732 12.4297 6.85355 12.5235C6.75979 12.6173 6.63261 12.67 6.5 12.67C6.36739 12.67 6.24021 12.6173 6.14645 12.5235C6.05268 12.4297 6 12.3026 6 12.17V11.17C6 11.0374 6.05268 10.9102 6.14645 10.8164C6.24021 10.7226 6.36739 10.67 6.5 10.67C6.63261 10.67 6.75979 10.7226 6.85355 10.8164C6.94732 10.9102 7 11.0374 7 11.17Z" fill="#939291"/>
</g>
</svg>
