<svg width="16" height="17" viewBox="0 0 16 17" fill="none" xmlns="http://www.w3.org/2000/svg">
<g id="ClockAfternoon">
<path id="Vector" d="M8 2C6.71442 2 5.45772 2.38122 4.3888 3.09545C3.31988 3.80968 2.48676 4.82484 1.99479 6.01256C1.50282 7.20028 1.37409 8.50721 1.6249 9.76809C1.8757 11.029 2.49477 12.1872 3.40381 13.0962C4.31285 14.0052 5.47104 14.6243 6.73192 14.8751C7.99279 15.1259 9.29973 14.9972 10.4874 14.5052C11.6752 14.0132 12.6903 13.1801 13.4046 12.1112C14.1188 11.0423 14.5 9.78558 14.5 8.5C14.4982 6.77665 13.8128 5.12441 12.5942 3.90582C11.3756 2.68722 9.72335 2.00182 8 2ZM8 14C6.91221 14 5.84884 13.6774 4.94437 13.0731C4.0399 12.4687 3.33495 11.6098 2.91867 10.6048C2.50238 9.59977 2.39347 8.4939 2.60568 7.427C2.8179 6.36011 3.34173 5.3801 4.11092 4.61091C4.8801 3.84172 5.86011 3.3179 6.92701 3.10568C7.9939 2.89346 9.09977 3.00238 10.1048 3.41866C11.1098 3.83494 11.9687 4.53989 12.5731 5.44436C13.1774 6.34883 13.5 7.4122 13.5 8.5C13.4983 9.95818 12.9184 11.3562 11.8873 12.3873C10.8562 13.4184 9.45819 13.9983 8 14ZM12 8.5C12 8.63261 11.9473 8.75979 11.8536 8.85355C11.7598 8.94732 11.6326 9 11.5 9H9.20688L10.8538 10.6462C10.9002 10.6927 10.9371 10.7479 10.9622 10.8086C10.9873 10.8692 11.0003 10.9343 11.0003 11C11.0003 11.0657 10.9873 11.1308 10.9622 11.1914C10.9371 11.2521 10.9002 11.3073 10.8538 11.3538C10.8073 11.4002 10.7521 11.4371 10.6915 11.4622C10.6308 11.4873 10.5657 11.5003 10.5 11.5003C10.4343 11.5003 10.3693 11.4873 10.3086 11.4622C10.2479 11.4371 10.1927 11.4002 10.1463 11.3538L7.64625 8.85375C7.57625 8.78382 7.52856 8.6947 7.50924 8.59765C7.48991 8.50061 7.49982 8.40002 7.53769 8.3086C7.57557 8.21719 7.63972 8.13908 7.72201 8.08414C7.80431 8.0292 7.90105 7.99992 8 8H11.5C11.6326 8 11.7598 8.05268 11.8536 8.14645C11.9473 8.24021 12 8.36739 12 8.5Z" fill="#939291"/>
</g>
</svg>
