<svg width="16" height="17" viewBox="0 0 16 17" fill="none" xmlns="http://www.w3.org/2000/svg">
<g id="Frame">
<path id="Vector" d="M11.5 6.26805V5.91992C11.5 4.35242 9.13562 3.16992 6 3.16992C2.86438 3.16992 0.5 4.35242 0.5 5.91992V8.41992C0.5 9.72555 2.14062 10.763 4.5 11.0737V11.4199C4.5 12.9874 6.86438 14.1699 10 14.1699C13.1356 14.1699 15.5 12.9874 15.5 11.4199V8.91992C15.5 7.62617 13.9113 6.58742 11.5 6.26805ZM14.5 8.91992C14.5 9.74617 12.5756 10.6699 10 10.6699C9.76688 10.6699 9.53562 10.6618 9.3075 10.6468C10.6556 10.1555 11.5 9.35742 11.5 8.41992V7.27867C13.3669 7.5568 14.5 8.3118 14.5 8.91992ZM4.5 10.0605V8.57367C4.99736 8.63848 5.49843 8.67063 6 8.66992C6.50157 8.67063 7.00264 8.63848 7.5 8.57367V10.0605C7.00338 10.1339 6.50201 10.1705 6 10.1699C5.49799 10.1705 4.99662 10.1339 4.5 10.0605ZM10.5 7.54055V8.41992C10.5 8.9443 9.72437 9.50742 8.5 9.8493V8.38867C9.30688 8.19305 9.99 7.9018 10.5 7.54055ZM6 4.16992C8.57562 4.16992 10.5 5.09367 10.5 5.91992C10.5 6.74617 8.57562 7.66992 6 7.66992C3.42438 7.66992 1.5 6.74617 1.5 5.91992C1.5 5.09367 3.42438 4.16992 6 4.16992ZM1.5 8.41992V7.54055C2.01 7.9018 2.69313 8.19305 3.5 8.38867V9.8493C2.27562 9.50742 1.5 8.9443 1.5 8.41992ZM5.5 11.4199V11.1593C5.66437 11.1655 5.83063 11.1699 6 11.1699C6.2425 11.1699 6.47937 11.1618 6.71187 11.148C6.97016 11.2405 7.23325 11.319 7.5 11.383V12.8493C6.27563 12.5074 5.5 11.9443 5.5 11.4199ZM8.5 13.0605V11.5699C8.9972 11.6368 9.49833 11.6702 10 11.6699C10.5016 11.6706 11.0026 11.6385 11.5 11.5737V13.0605C10.5053 13.2064 9.49468 13.2064 8.5 13.0605ZM12.5 12.8493V11.3887C13.3069 11.193 13.99 10.9018 14.5 10.5405V11.4199C14.5 11.9443 13.7244 12.5074 12.5 12.8493Z" fill="#939291"/>
</g>
</svg>
