<svg width="16" height="17" viewBox="0 0 16 17" fill="none" xmlns="http://www.w3.org/2000/svg">
<g id="EnvelopeSimple">
<path id="Vector" d="M14 3.66992H2C1.86739 3.66992 1.74021 3.7226 1.64645 3.81637C1.55268 3.91014 1.5 4.03731 1.5 4.16992V12.6699C1.5 12.9351 1.60536 13.1895 1.79289 13.377C1.98043 13.5646 2.23478 13.6699 2.5 13.6699H13.5C13.7652 13.6699 14.0196 13.5646 14.2071 13.377C14.3946 13.1895 14.5 12.9351 14.5 12.6699V4.16992C14.5 4.03731 14.4473 3.91014 14.3536 3.81637C14.2598 3.7226 14.1326 3.66992 14 3.66992ZM12.7144 4.66992L8 8.9918L3.28562 4.66992H12.7144ZM13.5 12.6699H2.5V5.3068L7.66187 10.0387C7.75412 10.1234 7.87478 10.1703 8 10.1703C8.12522 10.1703 8.24588 10.1234 8.33813 10.0387L13.5 5.3068V12.6699Z" fill="#939291"/>
</g>
</svg>
