<svg width="16" height="17" viewBox="0 0 16 17" fill="none" xmlns="http://www.w3.org/2000/svg">
<g id="FlagBanner">
<path id="Vector" d="M14.423 3.90305C14.3779 3.8317 14.3156 3.7729 14.2417 3.73214C14.1678 3.69138 14.0848 3.66998 14.0005 3.66992H2.00045C1.89965 3.66983 1.80117 3.70021 1.71794 3.75707C1.63471 3.81394 1.57061 3.89463 1.53405 3.98857C1.49749 4.08251 1.49017 4.1853 1.51306 4.28347C1.53596 4.38164 1.58799 4.4706 1.66233 4.53867L4.29295 6.9493L1.63295 9.83055C1.56695 9.90196 1.5232 9.99107 1.50707 10.087C1.49093 10.1829 1.50311 10.2814 1.54211 10.3705C1.58111 10.4595 1.64524 10.5353 1.72665 10.5885C1.80806 10.6417 1.90321 10.67 2.00045 10.6699H10.3517L8.5492 14.4549C8.51906 14.5144 8.50112 14.5793 8.49644 14.6458C8.49177 14.7124 8.50044 14.7792 8.52196 14.8423C8.54348 14.9054 8.57741 14.9636 8.62175 15.0134C8.66609 15.0632 8.71994 15.1036 8.78015 15.1323C8.84035 15.161 8.90568 15.1773 8.9723 15.1804C9.03891 15.1835 9.10547 15.1732 9.16804 15.1501C9.23062 15.127 9.28795 15.0917 9.33667 15.0462C9.38538 15.0006 9.42449 14.9458 9.4517 14.8849L14.4517 4.38492C14.488 4.3087 14.5044 4.22454 14.4993 4.14029C14.4943 4.05603 14.468 3.97441 14.423 3.90305ZM10.8273 9.66992H3.13983L5.36545 7.2593C5.41016 7.21094 5.44488 7.15423 5.4676 7.09243C5.49033 7.03062 5.50063 6.96493 5.4979 6.89913C5.49517 6.83333 5.47947 6.76872 5.4517 6.70901C5.42393 6.6493 5.38464 6.59566 5.33608 6.55117L3.28608 4.66992H13.2086L10.8273 9.66992Z" fill="#939291"/>
</g>
</svg>
