<svg width="17" height="17" viewBox="0 0 17 17" fill="none" xmlns="http://www.w3.org/2000/svg">
<g id="Google__G__Logo">
<path id="Path 1796" d="M8.66016 7.18506V10.3457H13.0524C12.9589 10.8445 12.7653 11.3191 12.4836 11.7412C12.2018 12.1633 11.8376 12.524 11.4129 12.8017L14.0617 14.8571C14.8642 14.083 15.4953 13.1492 15.9145 12.1161C16.3337 11.0829 16.5316 9.97332 16.4953 8.85895C16.4956 8.29927 16.4458 7.7407 16.3465 7.18989L8.66016 7.18506Z" fill="#4285F4"/>
<path id="Path 1797" d="M4.08695 10.2218L3.48957 10.6793L1.375 12.326C2.05246 13.6781 3.09251 14.8153 4.37894 15.6106C5.66538 16.4058 7.14754 16.8278 8.65993 16.8294C10.6472 16.8842 12.5801 16.1772 14.063 14.8532L11.4142 12.7978C10.5964 13.3302 9.63718 13.6042 8.66149 13.584C7.64449 13.5711 6.65699 13.2403 5.83747 12.6379C5.01796 12.0356 4.40753 11.1918 4.09173 10.225L4.08695 10.2218Z" fill="#34A853"/>
<path id="Path 1798" d="M1.37492 5.01135C0.799049 6.14442 0.499255 7.3976 0.500001 8.66861C0.499285 9.93962 0.799077 11.1928 1.37492 12.3259C1.37492 12.3331 4.09409 10.2185 4.09409 10.2185C3.92437 9.71901 3.83663 9.19532 3.83421 8.66778C3.83663 8.14024 3.92437 7.61659 4.09409 7.11709L1.37492 5.01135Z" fill="#FBBC05"/>
<path id="Path 1799" d="M8.66071 3.75742C9.82041 3.74072 10.9409 4.17713 11.7838 4.97384L14.1206 2.63697C12.6447 1.24711 10.6871 0.483896 8.65993 0.508C7.14727 0.508267 5.66453 0.929712 4.37787 1.7251C3.09121 2.52049 2.05144 3.65844 1.375 5.01143L4.09417 7.11873C4.40938 6.15197 5.01914 5.3081 5.83806 4.70532C6.65697 4.10254 7.64396 3.7711 8.66071 3.75742Z" fill="#EA4335"/>
</g>
</svg>
