<svg width="16" height="17" viewBox="0 0 16 17" fill="none" xmlns="http://www.w3.org/2000/svg">
<g id="HandCoins" clip-path="url(#clip0_568_1551)">
<path id="Vector" d="M14.3956 9.48617C14.2096 9.34302 13.993 9.2447 13.7628 9.19885C13.5325 9.15299 13.2948 9.16085 13.0681 9.2218L10.4531 9.82305C10.514 9.56604 10.5158 9.2986 10.4586 9.04077C10.4014 8.78293 10.2866 8.54139 10.1227 8.33425C9.95887 8.12711 9.75026 7.95975 9.51253 7.8447C9.2748 7.72964 9.01411 7.66989 8.75 7.66992H5.62125C5.3585 7.66926 5.09822 7.72068 4.85546 7.8212C4.61269 7.92171 4.39225 8.06934 4.20687 8.25555L2.79312 9.66992H1C0.734784 9.66992 0.48043 9.77528 0.292893 9.96282C0.105357 10.1504 0 10.4047 0 10.6699L0 13.1699C0 13.4351 0.105357 13.6895 0.292893 13.877C0.48043 14.0646 0.734784 14.1699 1 14.1699H7.5C7.54088 14.1699 7.58161 14.1649 7.62125 14.1549L11.6213 13.1549C11.6467 13.1489 11.6716 13.1405 11.6956 13.1299L14.125 12.0962L14.1525 12.0837C14.386 11.967 14.5859 11.7928 14.7335 11.5775C14.881 11.3622 14.9713 11.1129 14.9959 10.8531C15.0205 10.5932 14.9785 10.3314 14.8739 10.0923C14.7693 9.85312 14.6056 9.64454 14.3981 9.48617H14.3956ZM1 10.6699H2.5V13.1699H1V10.6699ZM13.7144 11.183L11.3394 12.1943L7.4375 13.1699H3.5V10.3768L4.91437 8.96305C5.0069 8.86979 5.11703 8.79584 5.23839 8.74552C5.35974 8.6952 5.48988 8.6695 5.62125 8.66992H8.75C8.94891 8.66992 9.13968 8.74894 9.28033 8.88959C9.42098 9.03025 9.5 9.22101 9.5 9.41992C9.5 9.61883 9.42098 9.8096 9.28033 9.95025C9.13968 10.0909 8.94891 10.1699 8.75 10.1699H7C6.86739 10.1699 6.74021 10.2226 6.64645 10.3164C6.55268 10.4101 6.5 10.5373 6.5 10.6699C6.5 10.8025 6.55268 10.9297 6.64645 11.0235C6.74021 11.1172 6.86739 11.1699 7 11.1699H9C9.03763 11.1698 9.07514 11.1656 9.11187 11.1574L13.2994 10.1943L13.3188 10.1893C13.4466 10.1538 13.583 10.1669 13.7018 10.2259C13.8206 10.285 13.9134 10.3859 13.9622 10.5092C14.0111 10.6326 14.0126 10.7696 13.9665 10.894C13.9204 11.0184 13.8299 11.1214 13.7125 11.183H13.7144ZM10.25 6.66992C10.3735 6.67006 10.4969 6.66003 10.6187 6.63992C10.7558 7.04714 11.0067 7.40658 11.3416 7.67576C11.6765 7.94494 12.0815 8.1126 12.5086 8.15891C12.9358 8.20522 13.3673 8.12825 13.7521 7.9371C14.1369 7.74595 14.459 7.44861 14.6801 7.08024C14.9013 6.71186 15.0124 6.28786 15.0002 5.85836C14.9881 5.42886 14.8532 5.01182 14.6115 4.65655C14.3699 4.30127 14.0315 4.02262 13.6365 3.85354C13.2415 3.68446 12.8064 3.63202 12.3825 3.70242C12.2505 3.31008 12.0128 2.96175 11.6956 2.69578C11.3784 2.42981 10.994 2.25651 10.5846 2.19495C10.1752 2.13338 9.75684 2.18594 9.37543 2.34684C8.99402 2.50774 8.66439 2.77074 8.42282 3.1069C8.18125 3.44306 8.0371 3.83935 8.00623 4.25216C7.97537 4.66496 8.05898 5.07828 8.24788 5.44663C8.43677 5.81498 8.72362 6.12408 9.07686 6.3399C9.43011 6.55573 9.83604 6.66993 10.25 6.66992ZM14 5.91992C14 6.16715 13.9267 6.40882 13.7893 6.61439C13.652 6.81995 13.4568 6.98016 13.2284 7.07477C12.9999 7.16938 12.7486 7.19414 12.5061 7.1459C12.2637 7.09767 12.0409 6.97862 11.8661 6.80381C11.6913 6.62899 11.5722 6.40626 11.524 6.16379C11.4758 5.92131 11.5005 5.66998 11.5952 5.44157C11.6898 5.21316 11.85 5.01794 12.0555 4.88059C12.2611 4.74323 12.5028 4.66992 12.75 4.66992C13.0815 4.66992 13.3995 4.80162 13.6339 5.03604C13.8683 5.27046 14 5.5884 14 5.91992ZM10.25 3.16992C10.5227 3.17006 10.7879 3.25936 11.0051 3.42422C11.2223 3.58908 11.3796 3.82045 11.4531 4.08305C11.197 4.26323 10.9814 4.49488 10.82 4.76318C10.6585 5.03148 10.5549 5.33052 10.5156 5.64117C10.4283 5.66002 10.3393 5.66966 10.25 5.66992C9.91848 5.66992 9.60054 5.53823 9.36612 5.30381C9.1317 5.06939 9 4.75144 9 4.41992C9 4.0884 9.1317 3.77046 9.36612 3.53604C9.60054 3.30162 9.91848 3.16992 10.25 3.16992Z" fill="#939291"/>
</g>
<defs>
<clipPath id="clip0_568_1551">
<rect width="16" height="16" fill="white" transform="translate(0 0.669922)"/>
</clipPath>
</defs>
</svg>
