<svg width="16" height="17" viewBox="0 0 16 17" fill="none" xmlns="http://www.w3.org/2000/svg">
<g id="House">
<path id="Vector" d="M13.6769 7.15546L8.67688 2.43796C8.67443 2.43583 8.67213 2.43353 8.67 2.43109C8.48591 2.26367 8.24602 2.1709 7.99719 2.1709C7.74836 2.1709 7.50846 2.26367 7.32438 2.43109L7.3175 2.43796L2.32312 7.15546C2.22125 7.24914 2.13993 7.36295 2.08431 7.48968C2.02869 7.61641 1.99998 7.75331 2 7.89171V13.6698C2 13.9351 2.10536 14.1894 2.29289 14.3769C2.48043 14.5645 2.73478 14.6698 3 14.6698H6C6.26522 14.6698 6.51957 14.5645 6.70711 14.3769C6.89464 14.1894 7 13.9351 7 13.6698V10.6698H9V13.6698C9 13.9351 9.10536 14.1894 9.29289 14.3769C9.48043 14.5645 9.73478 14.6698 10 14.6698H13C13.2652 14.6698 13.5196 14.5645 13.7071 14.3769C13.8946 14.1894 14 13.9351 14 13.6698V7.89171C14 7.75331 13.9713 7.61641 13.9157 7.48968C13.8601 7.36295 13.7788 7.24914 13.6769 7.15546ZM13 13.6698H10V10.6698C10 10.4046 9.89464 10.1503 9.70711 9.96273C9.51957 9.77519 9.26522 9.66984 9 9.66984H7C6.73478 9.66984 6.48043 9.77519 6.29289 9.96273C6.10536 10.1503 6 10.4046 6 10.6698V13.6698H3V7.89171L3.00688 7.88546L8 3.16984L12.9937 7.88421L13.0006 7.89046L13 13.6698Z" fill="#939291"/>
</g>
</svg>
