<svg width="16" height="17" viewBox="0 0 16 17" fill="none" xmlns="http://www.w3.org/2000/svg">
<path d="M3.59644 16.6617H0.282714V5.98975H3.59644V16.6617ZM1.93762 4.53456C1.55625 4.53642 1.1829 4.42514 0.864782 4.21481C0.546659 4.00448 0.29805 3.70454 0.150393 3.35291C0.0027361 3.00129 -0.0373368 2.61378 0.0352416 2.23938C0.10782 1.86498 0.28979 1.52051 0.558141 1.24953C0.826491 0.978553 1.16917 0.793234 1.54284 0.717009C1.91652 0.640785 2.3044 0.677078 2.65745 0.8213C3.01049 0.965522 3.31284 1.2112 3.52627 1.52725C3.73969 1.84331 3.8546 2.21556 3.85646 2.59692C3.8571 3.10776 3.65574 3.59814 3.29628 3.96111C2.93683 4.32409 2.44844 4.53022 1.93762 4.53456ZM15.9961 16.6617H12.6925V11.4667C12.6925 10.2284 12.6675 8.64089 10.9695 8.64089C9.24645 8.64089 8.98251 9.98564 8.98251 11.3774V16.6617H5.67271V5.98975H8.85094V7.44572H8.89715C9.21478 6.90213 9.67386 6.45483 10.2255 6.15142C10.7772 5.848 11.4008 5.69984 12.03 5.72268C15.3836 5.72268 16 7.93131 16 10.7994V16.6617H15.9961Z" fill="#3279B2"/>
</svg>
