<svg width="12" height="20" viewBox="0 0 12 20" fill="none" xmlns="http://www.w3.org/2000/svg">
<path id="Vector" opacity="0.5" d="M11.4187 18.4556L8.27929 10.0651C9.83723 9.1106 11.056 7.35438 11.0594 5.38416C11.0661 2.42203 8.68556 0.00680821 5.76107 1.43383e-05C2.83321 -0.00677954 0.44594 2.40165 0.439225 5.36038C0.435867 7.3306 1.64797 9.09361 3.20255 10.0549L0.0295943 18.4318C-0.0543464 18.6424 0.0463824 18.8836 0.254555 18.9685C0.301562 18.9889 0.355284 18.9991 0.412364 18.9991L11.0325 19.0195C11.2575 19.0195 11.4455 18.8394 11.4455 18.6118C11.4455 18.5609 11.4355 18.5065 11.4153 18.4556H11.4187ZM5.81815 8.92716C3.90765 8.92377 2.35979 7.34759 2.36315 5.41813V4.8916H3.40401V5.41813C3.40065 6.77011 4.48517 7.87072 5.8215 7.87411C7.15784 7.87751 8.24571 6.7803 8.24907 5.42832V4.90179H9.28993V5.42832C9.28658 7.36118 7.72864 8.92716 5.8215 8.92377L5.81815 8.92716Z" fill="white"/>
</svg>
