<svg width="34" height="55" viewBox="0 0 34 55" fill="none" xmlns="http://www.w3.org/2000/svg">
<path id="Vector" d="M33.4226 53.3694L24.371 29.1061C28.8629 26.3458 32.377 21.2672 32.3867 15.5698C32.4061 7.00396 25.5424 0.0196878 17.1104 4.1463e-05C8.66878 -0.0196049 1.78574 6.94503 1.76638 15.501C1.7567 21.1985 5.25147 26.2967 9.73367 29.0766L0.585327 53.3006C0.343307 53.9096 0.633731 54.6071 1.23394 54.8526C1.36947 54.9116 1.52436 54.9411 1.68894 54.9411L32.3093 55C32.9579 55 33.5 54.4794 33.5 53.8212C33.5 53.6739 33.471 53.5167 33.4129 53.3694H33.4226ZM17.275 25.8153C11.7666 25.8055 7.30379 21.2476 7.31347 15.668V14.1454H10.3145V15.668C10.3048 19.5776 13.4317 22.7603 17.2847 22.7702C21.1376 22.78 24.2742 19.6071 24.2839 15.6975V14.1749H27.2849V15.6975C27.2753 21.2869 22.7834 25.8153 17.2847 25.8055L17.275 25.8153Z" fill="#FCFAF9"/>
</svg>
