<svg width="16" height="17" viewBox="0 0 16 17" fill="none" xmlns="http://www.w3.org/2000/svg">
<g id="Person">
<path id="Vector" d="M10.0005 3.17004C10.0005 2.77448 9.88323 2.3878 9.66347 2.0589C9.44371 1.73001 9.13135 1.47366 8.7659 1.32229C8.40044 1.17091 7.99831 1.1313 7.61035 1.20847C7.22239 1.28564 6.86602 1.47613 6.58632 1.75583C6.30661 2.03554 6.11613 2.3919 6.03896 2.77986C5.96179 3.16783 6.00139 3.56996 6.15277 3.93541C6.30415 4.30086 6.56049 4.61322 6.88939 4.83298C7.21829 5.05275 7.60497 5.17004 8.00053 5.17004C8.53096 5.17004 9.03967 4.95933 9.41474 4.58426C9.78982 4.20919 10.0005 3.70048 10.0005 3.17004ZM8.00053 4.17004C7.80275 4.17004 7.60941 4.1114 7.44496 4.00151C7.28051 3.89163 7.15234 3.73545 7.07665 3.55273C7.00096 3.37 6.98116 3.16894 7.01974 2.97495C7.05833 2.78097 7.15357 2.60279 7.29342 2.46294C7.43328 2.32309 7.61146 2.22784 7.80544 2.18926C7.99942 2.15067 8.20049 2.17048 8.38321 2.24617C8.56594 2.32185 8.72212 2.45003 8.832 2.61447C8.94188 2.77892 9.00053 2.97226 9.00053 3.17004C9.00053 3.43526 8.89517 3.68962 8.70764 3.87715C8.5201 4.06469 8.26575 4.17004 8.00053 4.17004ZM13.6468 9.04817L10.8237 5.84692C10.6359 5.63415 10.4051 5.46376 10.1465 5.34706C9.88788 5.23035 9.60739 5.17001 9.32365 5.17004H6.6774C6.39367 5.17001 6.11318 5.23035 5.85456 5.34706C5.59594 5.46376 5.36511 5.63415 5.1774 5.84692L2.35428 9.04817C2.12501 9.28265 1.99708 9.59784 1.99805 9.92577C1.99903 10.2537 2.12883 10.5681 2.35949 10.8012C2.59014 11.0344 2.90317 11.1675 3.23107 11.1719C3.55898 11.1764 3.87551 11.0518 4.1124 10.825L5.13115 10.0075L4.0974 13.9375C3.96049 14.2396 3.94918 14.5838 4.06598 14.8942C4.18278 15.2046 4.41812 15.4559 4.72022 15.5929C5.02232 15.7298 5.36643 15.7411 5.67686 15.6243C5.98729 15.5075 6.23861 15.2721 6.37553 14.97L8.00053 12.1657L9.62553 14.97C9.76856 15.262 10.0197 15.4867 10.3257 15.5966C10.6317 15.7064 10.9685 15.6927 11.2645 15.5584C11.5606 15.4241 11.7927 15.1797 11.9115 14.8771C12.0304 14.5745 12.0267 14.2375 11.9012 13.9375L10.8699 10.0075L11.8887 10.825C12.1256 11.0518 12.4421 11.1764 12.77 11.1719C13.0979 11.1675 13.4109 11.0344 13.6416 10.8012C13.8722 10.5681 14.002 10.2537 14.003 9.92577C14.004 9.59784 13.876 9.28265 13.6468 9.04817ZM12.9274 10.0963C12.9042 10.1195 12.8766 10.138 12.8463 10.1506C12.8159 10.1631 12.7834 10.1696 12.7505 10.1696C12.7177 10.1696 12.6851 10.1631 12.6548 10.1506C12.6244 10.138 12.5969 10.1195 12.5737 10.0963C12.5605 10.0838 12.5474 10.0713 12.533 10.06L10.313 8.28005C10.2311 8.21464 10.1307 8.17665 10.026 8.17143C9.92128 8.16622 9.81758 8.19404 9.72956 8.25098C9.64153 8.30791 9.57363 8.39107 9.53544 8.4887C9.49726 8.58634 9.49073 8.6935 9.51678 8.79504L10.9468 14.2325C10.9541 14.2615 10.9642 14.2898 10.9768 14.3169C10.9912 14.3467 10.9996 14.3791 11.0014 14.4122C11.0032 14.4453 10.9984 14.4784 10.9873 14.5096C10.9761 14.5408 10.9589 14.5695 10.9366 14.594C10.9143 14.6185 10.8874 14.6384 10.8574 14.6524C10.8273 14.6664 10.7948 14.6743 10.7617 14.6756C10.7286 14.6769 10.6956 14.6716 10.6645 14.6601C10.6335 14.6485 10.605 14.6309 10.5808 14.6083C10.5567 14.5856 10.5372 14.5584 10.5237 14.5282C10.5175 14.5147 10.5106 14.5015 10.503 14.4888L8.43303 10.92C8.38908 10.8443 8.32599 10.7814 8.25009 10.7377C8.17418 10.6939 8.08812 10.6709 8.00053 10.6709C7.91293 10.6709 7.82688 10.6939 7.75097 10.7377C7.67507 10.7814 7.61198 10.8443 7.56803 10.92L5.50053 14.4857C5.49291 14.4984 5.48603 14.5115 5.4799 14.525C5.46602 14.5548 5.4464 14.5816 5.42216 14.6038C5.39792 14.626 5.36955 14.6432 5.33865 14.6544C5.29216 14.6715 5.24166 14.6743 5.19354 14.6626C5.14543 14.6509 5.10188 14.6252 5.0684 14.5887C5.03493 14.5522 5.01304 14.5066 5.00552 14.4577C4.998 14.4087 5.00518 14.3586 5.02615 14.3138C5.03875 14.2867 5.04879 14.2584 5.05615 14.2294L6.48428 8.79504C6.51033 8.6935 6.5038 8.58634 6.46561 8.4887C6.42743 8.39107 6.35953 8.30791 6.2715 8.25098C6.18348 8.19404 6.07978 8.16622 5.97508 8.17143C5.87038 8.17665 5.76996 8.21464 5.68803 8.28005L3.46803 10.06C3.45365 10.0713 3.44053 10.0838 3.4274 10.0963C3.40444 10.1205 3.37686 10.1399 3.3463 10.1533C3.31573 10.1666 3.2828 10.1738 3.24943 10.1742C3.21606 10.1747 3.18294 10.1685 3.15202 10.1559C3.1211 10.1434 3.09301 10.1248 3.06939 10.1012C3.04577 10.0776 3.02712 10.0496 3.01452 10.0187C3.00192 9.98776 2.99563 9.95465 2.99603 9.92128C2.99643 9.88792 3.0035 9.85497 3.01683 9.82438C3.03016 9.79379 3.04948 9.76618 3.07365 9.74317C3.08115 9.73567 3.08803 9.72817 3.0949 9.72005L5.9274 6.50817C6.02129 6.40184 6.13671 6.3167 6.26602 6.25841C6.39533 6.20011 6.53556 6.16999 6.6774 6.17004H9.32365C9.4655 6.16999 9.60573 6.20011 9.73504 6.25841C9.86434 6.3167 9.97977 6.40184 10.0737 6.50817L12.9062 9.72005C12.913 9.72817 12.9199 9.73567 12.9274 9.74317C12.9742 9.79004 13.0004 9.85353 13.0004 9.91973C13.0004 9.98593 12.9742 10.0494 12.9274 10.0963Z" fill="#939291"/>
</g>
</svg>
