<svg width="16" height="17" viewBox="0 0 16 17" fill="none" xmlns="http://www.w3.org/2000/svg">
<g id="ReadCvLogo">
<path id="Vector" d="M13.1732 3.12305L5.0326 1.68555C4.77145 1.63959 4.50273 1.69924 4.28555 1.85137C4.06837 2.0035 3.92051 2.23566 3.87447 2.4968L2.0151 13.0593C1.99235 13.1887 1.99533 13.3213 2.02386 13.4496C2.05239 13.5778 2.10592 13.6992 2.18137 13.8067C2.25683 13.9143 2.35273 14.0059 2.46362 14.0764C2.5745 14.1468 2.69818 14.1948 2.8276 14.2174L10.9682 15.6549C11.0977 15.6778 11.2303 15.6748 11.3587 15.6464C11.487 15.6179 11.6084 15.5644 11.716 15.4889C11.8237 15.4134 11.9153 15.3175 11.9859 15.2066C12.0564 15.0956 12.1043 14.9719 12.127 14.8424L13.9863 4.27992C14.0319 4.01869 13.9718 3.75006 13.8193 3.53311C13.6669 3.31616 13.4344 3.16866 13.1732 3.12305ZM11.1407 14.6699L2.99947 13.2324L4.85885 2.66992L12.9995 4.10742L11.1407 14.6699ZM5.58322 4.32117C5.60638 4.19065 5.68042 4.07468 5.78907 3.99873C5.89771 3.92279 6.03206 3.89309 6.1626 3.91617L11.3501 4.8318C11.4734 4.85339 11.5841 4.92045 11.6603 5.0197C11.7366 5.11896 11.7728 5.24321 11.7619 5.3679C11.751 5.49258 11.6937 5.60864 11.6014 5.69315C11.5091 5.77765 11.3884 5.82445 11.2632 5.8243C11.2339 5.82426 11.2046 5.82175 11.1757 5.8168L5.98822 4.90055C5.8577 4.87739 5.74172 4.80335 5.66578 4.6947C5.58983 4.58606 5.56014 4.4517 5.58322 4.32117ZM5.23697 6.29117C5.24837 6.22649 5.27239 6.16469 5.30768 6.10929C5.34297 6.0539 5.38882 6.006 5.44263 5.96833C5.49643 5.93066 5.55713 5.90397 5.62125 5.88976C5.68537 5.87556 5.75167 5.87412 5.81635 5.88555L11.0038 6.8018C11.128 6.82256 11.2398 6.88939 11.3168 6.98894C11.3938 7.08849 11.4305 7.21344 11.4194 7.33883C11.4084 7.46422 11.3505 7.58083 11.2572 7.66538C11.1639 7.74993 11.0422 7.79619 10.9163 7.79492C10.8868 7.79498 10.8573 7.79226 10.8282 7.7868L5.64072 6.87117C5.5103 6.84773 5.39453 6.77347 5.31882 6.66472C5.24312 6.55597 5.21368 6.42162 5.23697 6.29117ZM4.8901 8.26055C4.91369 8.13037 4.98791 8.01486 5.09651 7.9393C5.2051 7.86374 5.33921 7.8343 5.46947 7.85742L8.06197 8.31305C8.1852 8.33464 8.29587 8.40164 8.37211 8.50083C8.44836 8.60002 8.48465 8.7242 8.47382 8.84884C8.46298 8.97348 8.40582 9.08953 8.31361 9.17408C8.22139 9.25863 8.10083 9.30554 7.97572 9.30555C7.94639 9.30553 7.91712 9.30303 7.88822 9.29805L5.29447 8.83992C5.16407 8.81662 5.04824 8.74252 4.97243 8.63389C4.89661 8.52526 4.867 8.39099 4.8901 8.26055Z" fill="#939291"/>
</g>
</svg>
