<svg width="107" height="29" viewBox="0 0 107 29" fill="none" xmlns="http://www.w3.org/2000/svg">
<g id="Layer_1" style="mix-blend-mode:luminosity" opacity="0.6" clip-path="url(#clip0_637_521)">
<g id="Group">
<path id="Vector" d="M92.5429 3.68384L81.7598 14.4993L92.5429 25.3147L103.326 14.4993L92.5429 3.68384ZM92.5429 23.0775L83.9903 14.4993L92.5429 5.92103L101.096 14.4993L92.5429 23.0775Z" fill="#59C3BA"/>
<path id="Vector_2" d="M98.8634 10.0249L95.5176 13.3807L96.6328 14.4993L98.8634 12.2621L101.095 14.4993L98.8634 16.7379L96.6328 14.4993L95.5176 15.6193L98.8634 18.9751L103.326 14.4993L98.8634 10.0249Z" fill="#4680BF"/>
<path id="Vector_3" d="M88.0801 8.15963L91.4273 11.5168L92.5425 10.3968L90.312 8.15963L92.5425 5.92244L94.773 8.15963L92.5425 10.3968L93.6578 11.5168L97.005 8.15963L92.5425 3.68384L88.0801 8.15963Z" fill="#4680BF"/>
<path id="Vector_4" d="M86.2222 18.9751L89.568 15.6193L88.4527 14.4993L86.2222 16.7379L83.9903 14.4993L86.2222 12.2621L88.4527 14.4993L89.568 13.3807L86.2222 10.0249L81.7598 14.4993L86.2222 18.9751Z" fill="#4680BF"/>
<path id="Vector_5" d="M97.005 20.8403L93.6578 17.4832L92.5425 18.6017L94.773 20.8403L92.5425 23.0775L90.312 20.8403L92.5425 18.6017L91.4273 17.4832L88.0801 20.8403L92.5425 25.3161L97.005 20.8403Z" fill="#4680BF"/>
<path id="Vector_6" d="M94.4033 14.4998L92.5439 12.6349L90.6846 14.4998L92.5439 16.3647L94.4033 14.4998Z" fill="#59C3BA"/>
<path id="Vector_7" d="M104.768 13.7088H106.999L93.3311 0V2.23719L104.768 13.7088Z" fill="#1B385C"/>
<path id="Vector_8" d="M93.3311 26.7629V29L107 15.2913H104.768L93.3311 26.7629Z" fill="#1B385C"/>
<path id="Vector_9" d="M91.7548 26.7629L80.3174 15.2913H78.0869L91.7548 29V26.7629Z" fill="#1B385C"/>
<path id="Vector_10" d="M91.7548 2.23719V0L78.0869 13.7088H80.3174L91.7548 2.23719Z" fill="#1B385C"/>
</g>
<g id="Group_2">
<g id="Group_3">
<path id="Vector_11" d="M1.00528 19.634H0.64434V20.6847H0V17.8621H1.12654C1.8738 17.8621 2.18399 18.3075 2.18399 18.7501C2.18399 19.0811 2.02749 19.3865 1.65949 19.5407L2.36587 20.6861H1.64539L1.00528 19.6354V19.634ZM0.64434 18.4602V19.0839H0.992594C1.29573 19.0839 1.50722 19.0386 1.50722 18.7671C1.50722 18.5239 1.32252 18.4602 0.992594 18.4602H0.64434Z" fill="#64696C"/>
<path id="Vector_12" d="M2.83398 17.8621H4.71907V18.4602H3.47691V18.9439H4.60345V19.5463H3.47691V20.0865H4.72189V20.6847H2.83398V17.8621Z" fill="#64696C"/>
<path id="Vector_13" d="M7.78581 20.6847H7.12455L6.9328 20.1275H5.83023L5.6427 20.6847H4.98145L5.98673 17.8621H6.77911L7.7844 20.6847H7.78581ZM6.03326 19.5251H6.73258L6.38433 18.4942L6.03326 19.5251Z" fill="#64696C"/>
<path id="Vector_14" d="M8.81513 20.0865H10.0531V20.6847H8.16797V17.8621H8.81513V20.0865Z" fill="#64696C"/>
<path id="Vector_15" d="M11.6182 17.8621H13.5032V18.4602H12.2611V18.9439H13.3876V19.5463H12.2611V20.0865H13.5061V20.6847H11.6182V17.8621Z" fill="#64696C"/>
<path id="Vector_16" d="M14.9625 20.1205C15.2374 20.1205 15.4799 20.0681 15.4799 19.8659C15.4799 19.6778 15.2924 19.6156 15.0133 19.552L14.7693 19.4968C14.2519 19.378 13.9699 19.0613 13.9699 18.6158C13.9699 18.1703 14.3731 17.8041 15.0654 17.8041C15.4687 17.8041 15.9072 17.9497 16.0876 18.0586L15.8409 18.6299C15.6393 18.497 15.3164 18.4136 15.0626 18.4136C14.861 18.4136 14.6312 18.4758 14.6312 18.6229C14.6312 18.7516 14.7383 18.8322 15.0175 18.8972L15.2572 18.9524C15.7718 19.0712 16.1581 19.3427 16.1581 19.8645C16.1581 20.4287 15.6294 20.7271 14.9822 20.7271C14.5621 20.7271 14.1264 20.6225 13.8867 20.4768L14.1335 19.9055C14.3252 20.0314 14.6763 20.1176 14.9611 20.1176L14.9625 20.1205Z" fill="#64696C"/>
<path id="Vector_17" d="M17.4068 18.4602H16.5059V17.8621H18.9507V18.4602H18.0497V20.6847H17.4068V18.4602Z" fill="#64696C"/>
<path id="Vector_18" d="M21.5807 20.6847H20.9195L20.7277 20.1275H19.6251L19.4376 20.6847H18.7764L19.7817 17.8621H20.574L21.5793 20.6847H21.5807ZM19.8282 19.5251H20.5275L20.1793 18.4942L19.8282 19.5251Z" fill="#64696C"/>
<path id="Vector_19" d="M22.3062 18.4602H21.4053V17.8621H23.8501V18.4602H22.9492V20.6847H22.3062V18.4602Z" fill="#64696C"/>
<path id="Vector_20" d="M24.2852 17.8621H26.1702V18.4602H24.9281V18.9439H26.0546V19.5463H24.9281V20.0865H26.1731V20.6847H24.2852V17.8621Z" fill="#64696C"/>
<path id="Vector_21" d="M29.6541 20.0229V19.6637H29.1155V19.0613H30.2985V20.4641C30.0207 20.6352 29.5061 20.7285 29.1437 20.7285C28.2428 20.7285 27.6689 20.112 27.6689 19.2663C27.6689 18.4206 28.2428 17.8041 29.1437 17.8041C29.5681 17.8041 29.9855 17.9045 30.2252 18.0516L29.9812 18.6229C29.7867 18.497 29.4976 18.4136 29.1705 18.4136C28.725 18.4136 28.3457 18.6639 28.3457 19.2663C28.3457 19.8687 28.725 20.119 29.1705 20.119C29.3411 20.119 29.5075 20.0837 29.6541 20.0215V20.0229Z" fill="#64696C"/>
<path id="Vector_22" d="M30.9932 17.8621H32.8782V18.4602H31.6361V18.9439H32.7626V19.5463H31.6361V20.0865H32.8811V20.6847H30.9932V17.8621Z" fill="#64696C"/>
<path id="Vector_23" d="M34.0839 18.4673V20.6847H33.4551V17.8621H34.411L35.2034 20.0795V17.8621H35.8294V20.6847H34.8763L34.0839 18.4673Z" fill="#64696C"/>
<path id="Vector_24" d="M36.5254 17.8621H38.4105V18.4602H37.1683V18.9439H38.2949V19.5463H37.1683V20.0865H38.4133V20.6847H36.5254V17.8621Z" fill="#64696C"/>
<path id="Vector_25" d="M39.9931 19.634H39.6322V20.6847H38.9893V17.8621H40.1158C40.8631 17.8621 41.1732 18.3075 41.1732 18.7501C41.1732 19.0811 41.0167 19.3865 40.6488 19.5407L41.3551 20.6861H40.6347L39.9945 19.6354L39.9931 19.634ZM39.6322 18.4602V19.0839H39.9804C40.2836 19.0839 40.4951 19.0386 40.4951 18.7671C40.4951 18.5239 40.3104 18.4602 39.9804 18.4602H39.6322Z" fill="#64696C"/>
<path id="Vector_26" d="M44.3112 20.6847H43.6499L43.4582 20.1275H42.3556L42.1681 20.6847H41.5068L42.5121 17.8621H43.3045L44.3098 20.6847H44.3112ZM42.5586 19.5251H43.258L42.9097 18.4942L42.5586 19.5251Z" fill="#64696C"/>
<path id="Vector_27" d="M45.3405 20.0865H46.5784V20.6847H44.6934V17.8621H45.3405V20.0865Z" fill="#64696C"/>
<path id="Vector_28" d="M50.6325 20.6847H49.9712L49.7795 20.1275H48.6769L48.4894 20.6847H47.8281L48.8334 17.8621H49.6258L50.6311 20.6847H50.6325ZM48.8799 19.5251H49.5793L49.231 18.4942L48.8799 19.5251Z" fill="#64696C"/>
<path id="Vector_29" d="M50.876 19.5703V17.8606H51.5189V19.4204C51.5189 19.8758 51.6543 20.1204 52.1139 20.1204C52.5735 20.1204 52.7089 19.8772 52.7089 19.4204V17.8606H53.3518V19.5703C53.3518 20.2321 52.9965 20.7299 52.1139 20.7299C51.2313 20.7299 50.876 20.2321 50.876 19.5703Z" fill="#64696C"/>
<path id="Vector_30" d="M54.6519 18.4602H53.751V17.8621H56.1958V18.4602H55.2949V20.6847H54.6519V18.4602Z" fill="#64696C"/>
<path id="Vector_31" d="M56.6318 20.6847V17.8621H57.2748V18.9453H58.4464V17.8621H59.0894V20.6847H58.4464V19.5463H57.2748V20.6847H56.6318Z" fill="#64696C"/>
<path id="Vector_32" d="M61.0714 20.73C60.1916 20.73 59.5938 20.0866 59.5938 19.2678C59.5938 18.449 60.1916 17.8055 61.0714 17.8055C61.9512 17.8055 62.549 18.449 62.549 19.2678C62.549 20.0866 61.9512 20.73 61.0714 20.73ZM61.0714 18.4193C60.5948 18.4193 60.2719 18.7643 60.2719 19.2692C60.2719 19.774 60.5948 20.1191 61.0714 20.1191C61.5479 20.1191 61.8708 19.774 61.8708 19.2692C61.8708 18.7643 61.5479 18.4193 61.0714 18.4193Z" fill="#64696C"/>
<path id="Vector_33" d="M64.0586 19.634H63.6976V20.6847H63.0547V17.8621H64.1812C64.9285 17.8621 65.2387 18.3075 65.2387 18.7501C65.2387 19.0811 65.0822 19.3865 64.7142 19.5407L65.4206 20.6861H64.7001L64.06 19.6354L64.0586 19.634ZM63.6976 18.4602V19.0839H64.0459C64.349 19.0839 64.5605 19.0386 64.5605 18.7671C64.5605 18.5239 64.3758 18.4602 64.0459 18.4602H63.6976Z" fill="#64696C"/>
<path id="Vector_34" d="M65.8877 20.6847V17.8621H66.5306V20.6847H65.8877Z" fill="#64696C"/>
<path id="Vector_35" d="M67.8658 18.4602H66.9648V17.8621H69.4097V18.4602H68.5087V20.6847H67.8658V18.4602Z" fill="#64696C"/>
<path id="Vector_36" d="M71.5765 17.8621H72.3026L71.3015 19.6651V20.6847H70.6586V19.6651L69.6533 17.8621H70.3794L70.9773 19.0415L71.5751 17.8621H71.5765Z" fill="#64696C"/>
</g>
<g id="Group_4">
<path id="Vector_37" d="M0.991185 15.352C0.991185 15.6263 0.888259 15.6829 0.733166 15.6829C0.590763 15.6829 0.452589 15.6461 0.322875 15.574L0.273527 15.5471L0 16.1835L0.0394782 16.2061C0.193161 16.2966 0.490657 16.3942 0.8657 16.3942C1.44377 16.3942 1.73845 16.0576 1.73845 15.393V10.4491H0.991185V15.352Z" fill="#64696C"/>
<path id="Vector_38" d="M20.8174 13.9633H18.9634V8.2699L18.2175 9.15516V13.9633H15.5457L16.6567 12.8489L14.2443 10.4293L11.8319 12.8489L12.9429 13.9633H9.16007L10.2711 12.8489L7.8587 10.4293L5.4463 12.8489L6.55733 13.9633H3.8855V8.2699L3.13965 9.15516V14.7114H21.5633V8.2699L20.8174 9.15516V13.9633ZM12.8865 12.8489L14.2443 11.4871L15.6021 12.8489L14.491 13.9633H13.9976L12.8865 12.8489ZM6.50093 12.8489L7.8587 11.4871L9.21647 12.8489L8.10544 13.9633H7.61196L6.50093 12.8489Z" fill="#64696C"/>
<path id="Vector_39" d="M7.15142 8.77852L6.62402 9.3075L7.15142 9.83647L7.67882 9.3075L7.15142 8.77852Z" fill="#64696C"/>
<path id="Vector_40" d="M8.56744 8.77901L8.04004 9.30798L8.56744 9.83696L9.09484 9.30798L8.56744 8.77901Z" fill="#64696C"/>
<path id="Vector_41" d="M45.4407 14.7114H46.1866V8.2699L45.4407 9.15516V14.7114ZM43.9222 8.2699L43.1764 9.15516V13.9633H40.6765L41.7876 12.8489L39.3752 10.4293L36.9628 12.8489L38.0738 13.9633H35.574V8.2699L34.8281 9.15516V14.7114H43.9236V8.2699H43.9222ZM38.0174 12.8489L39.3752 11.4871L40.7329 12.8489L39.6219 13.9633H39.1284L38.0174 12.8489Z" fill="#64696C"/>
<path id="Vector_42" d="M29.3251 13.9632H27.4936V10.203H26.7477V10.5707H26.4925C25.022 10.5707 23.9941 11.4234 23.9941 12.6438C23.9941 13.3353 24.2719 13.8911 24.7964 14.2517C25.2278 14.5473 25.8313 14.7113 26.4925 14.7113H29.9342L31.6698 16.4521L34.0822 14.0325L31.6698 11.6129L29.3265 13.9632H29.3251ZM26.7463 13.9632H26.2486C25.3449 13.9632 24.7386 13.4329 24.7386 12.6438C24.7386 11.8547 25.5225 11.3174 26.2486 11.3174H26.7463V13.9632ZM31.6684 15.3944L30.3107 14.0325L31.6684 12.6707L33.0262 14.0325L31.6684 15.3944Z" fill="#64696C"/>
<path id="Vector_43" d="M25.7022 8.55293L25.1748 9.08191L25.7022 9.61089L26.2296 9.08191L25.7022 8.55293Z" fill="#64696C"/>
<path id="Vector_44" d="M27.1202 8.55488L26.5928 9.08386L27.1202 9.61284L27.6476 9.08386L27.1202 8.55488Z" fill="#64696C"/>
<path id="Vector_45" d="M71.5566 9.15516V14.7114H72.3025V8.2699L71.5566 9.15516Z" fill="#64696C"/>
<path id="Vector_46" d="M69.2929 13.9633H66.6451L67.4473 13.1586L63.3923 9.09152L60.251 12.2422L60.7783 12.7711L63.3923 10.1493L66.3927 13.1586L65.5904 13.9633H64.4568L65.2591 13.1586L63.3923 11.2863L61.5256 13.1586L62.3278 13.9633H58.098V10.4505H57.3522V13.9633H54.6677V10.4505H53.9218V13.9633H52.1157V10.203H51.3698V10.5707H51.1146C49.6441 10.5707 48.6162 11.4235 48.6162 12.6439C48.6162 13.3354 48.894 13.8911 49.4185 14.2518C49.8499 14.5473 50.4534 14.7114 51.1146 14.7114H70.0388V8.2699L69.2929 9.15516V13.9633ZM51.3698 13.9633H50.8721C49.9683 13.9633 49.3621 13.433 49.3621 12.6439C49.3621 11.8548 50.146 11.3174 50.8721 11.3174H51.3698V13.9633ZM62.5802 13.1572L63.3923 12.3427L64.2045 13.1572L63.4022 13.9619H63.3839L62.5816 13.1572H62.5802Z" fill="#64696C"/>
<path id="Vector_47" d="M57.0176 15.3054L56.4902 15.8344L57.0176 16.3633L57.545 15.8343L57.0176 15.3054Z" fill="#64696C"/>
<path id="Vector_48" d="M58.4327 15.3031L57.9053 15.832L58.4327 16.361L58.9601 15.832L58.4327 15.3031Z" fill="#64696C"/>
<path id="Vector_49" d="M55.0936 9.35875H54.008V9.14521C54.008 8.90198 54.0968 8.81571 54.3464 8.81571H54.8582V8.32642H54.3309C53.7203 8.32642 53.4229 8.64319 53.4229 9.2937V9.90885H55.0936V9.35875Z" fill="#64696C"/>
<path id="Vector_50" d="M50.3252 8.55306L49.7979 9.08203L50.3253 9.61101L50.8526 9.08203L50.3252 8.55306Z" fill="#64696C"/>
<path id="Vector_51" d="M51.7432 8.55501L51.2158 9.08398L51.7432 9.61296L52.2706 9.08398L51.7432 8.55501Z" fill="#64696C"/>
</g>
</g>
</g>
<defs>
<clipPath id="clip0_637_521">
<rect width="107" height="29" fill="white"/>
</clipPath>
</defs>
</svg>
