<svg width="16" height="17" viewBox="0 0 16 17" fill="none" xmlns="http://www.w3.org/2000/svg">
<g id="User">
<path id="Vector" d="M14.4329 13.9199C13.481 12.2743 12.0142 11.0943 10.3023 10.5349C11.1491 10.0308 11.8069 9.26271 12.1749 8.34854C12.5429 7.43436 12.6006 6.42466 12.3392 5.47451C12.0778 4.52436 11.5117 3.68628 10.7279 3.08899C9.94408 2.4917 8.98587 2.16821 8.00041 2.16821C7.01496 2.16821 6.05674 2.4917 5.27293 3.08899C4.48911 3.68628 3.92304 4.52436 3.66163 5.47451C3.40022 6.42466 3.45793 7.43436 3.82591 8.34854C4.19388 9.26271 4.85177 10.0308 5.69854 10.5349C3.98666 11.0937 2.51979 12.2737 1.56791 13.9199C1.53301 13.9768 1.50985 14.0402 1.49982 14.1062C1.48978 14.1722 1.49307 14.2395 1.50949 14.3043C1.52591 14.369 1.55512 14.4298 1.59541 14.483C1.63569 14.5362 1.68624 14.5809 1.74405 14.6143C1.80187 14.6477 1.86579 14.6692 1.93204 14.6774C1.9983 14.6857 2.06554 14.6807 2.1298 14.6626C2.19407 14.6444 2.25405 14.6136 2.30622 14.572C2.35838 14.5303 2.40168 14.4786 2.43354 14.4199C3.61104 12.3849 5.69229 11.1699 8.00041 11.1699C10.3085 11.1699 12.3898 12.3849 13.5673 14.4199C13.5992 14.4786 13.6424 14.5303 13.6946 14.572C13.7468 14.6136 13.8068 14.6444 13.871 14.6626C13.9353 14.6807 14.0025 14.6857 14.0688 14.6774C14.135 14.6692 14.199 14.6477 14.2568 14.6143C14.3146 14.5809 14.3651 14.5362 14.4054 14.483C14.4457 14.4298 14.4749 14.369 14.4913 14.3043C14.5078 14.2395 14.511 14.1722 14.501 14.1062C14.491 14.0402 14.4678 13.9768 14.4329 13.9199ZM4.50041 6.66991C4.50041 5.97768 4.70568 5.30099 5.09027 4.72542C5.47485 4.14985 6.02148 3.70124 6.66102 3.43633C7.30056 3.17143 8.0043 3.10212 8.68323 3.23716C9.36216 3.37221 9.9858 3.70556 10.4753 4.19504C10.9648 4.68452 11.2981 5.30816 11.4332 5.9871C11.5682 6.66603 11.4989 7.36976 11.234 8.00931C10.9691 8.64885 10.5205 9.19547 9.94491 9.58006C9.36934 9.96464 8.69265 10.1699 8.00041 10.1699C7.07246 10.1689 6.1828 9.79985 5.52664 9.14369C4.87047 8.48753 4.50141 7.59787 4.50041 6.66991Z" fill="#939291"/>
</g>
</svg>
